<mxfile host="app.diagrams.net" modified="2023-12-24T13:47:07.218Z" agent="Mozilla/5.0 (Windows NT 10.0; Win64; x64) AppleWebKit/537.36 (KHTML, like Gecko) Chrome/120.0.0.0 Safari/537.36" etag="-kTVQ0TNqH108QzxQgqm" version="22.1.11" type="github">
  <diagram name="Page-1" id="mrSbHIFFxG6nD8Tr200l">
    <mxGraphModel dx="1050" dy="569" grid="1" gridSize="10" guides="1" tooltips="1" connect="1" arrows="1" fold="1" page="1" pageScale="1" pageWidth="827" pageHeight="1169" math="0" shadow="0">
      <root>
        <mxCell id="0" />
        <mxCell id="1" parent="0" />
        <mxCell id="jcnDfossht-irfQoDZaH-1" value="Internet" style="ellipse;shape=cloud;whiteSpace=wrap;html=1;fillColor=#fad9d5;strokeColor=#ae4132;" vertex="1" parent="1">
          <mxGeometry x="120" y="240" width="120" height="80" as="geometry" />
        </mxCell>
        <mxCell id="jcnDfossht-irfQoDZaH-2" value="User&lt;br&gt;Service" style="rhombus;whiteSpace=wrap;html=1;fillColor=#cdeb8b;strokeColor=#36393d;" vertex="1" parent="1">
          <mxGeometry x="494" y="240" width="80" height="80" as="geometry" />
        </mxCell>
        <mxCell id="jcnDfossht-irfQoDZaH-3" value="Cours&lt;br&gt;Service" style="rhombus;whiteSpace=wrap;html=1;fillColor=#cce5ff;strokeColor=#36393d;" vertex="1" parent="1">
          <mxGeometry x="494" y="120" width="80" height="80" as="geometry" />
        </mxCell>
        <mxCell id="jcnDfossht-irfQoDZaH-4" value="Progress&lt;br&gt;Service" style="rhombus;whiteSpace=wrap;html=1;fillColor=#cce5ff;strokeColor=#36393d;" vertex="1" parent="1">
          <mxGeometry x="494" y="360" width="80" height="80" as="geometry" />
        </mxCell>
        <mxCell id="jcnDfossht-irfQoDZaH-8" value="" style="endArrow=classic;startArrow=classic;html=1;rounded=0;exitX=0.5;exitY=0;exitDx=0;exitDy=0;entryX=0.5;entryY=1;entryDx=0;entryDy=0;" edge="1" parent="1" source="jcnDfossht-irfQoDZaH-4" target="jcnDfossht-irfQoDZaH-2">
          <mxGeometry width="50" height="50" relative="1" as="geometry">
            <mxPoint x="510" y="320" as="sourcePoint" />
            <mxPoint x="560" y="270" as="targetPoint" />
          </mxGeometry>
        </mxCell>
        <mxCell id="jcnDfossht-irfQoDZaH-9" value="Http" style="edgeLabel;html=1;align=center;verticalAlign=middle;resizable=0;points=[];" vertex="1" connectable="0" parent="jcnDfossht-irfQoDZaH-8">
          <mxGeometry x="-0.1" y="1" relative="1" as="geometry">
            <mxPoint as="offset" />
          </mxGeometry>
        </mxCell>
        <mxCell id="jcnDfossht-irfQoDZaH-10" value="" style="endArrow=classic;startArrow=classic;html=1;rounded=0;entryX=0.5;entryY=1;entryDx=0;entryDy=0;" edge="1" parent="1" target="jcnDfossht-irfQoDZaH-3">
          <mxGeometry width="50" height="50" relative="1" as="geometry">
            <mxPoint x="534" y="240" as="sourcePoint" />
            <mxPoint x="544" y="330" as="targetPoint" />
          </mxGeometry>
        </mxCell>
        <mxCell id="jcnDfossht-irfQoDZaH-11" value="Http" style="edgeLabel;html=1;align=center;verticalAlign=middle;resizable=0;points=[];" vertex="1" connectable="0" parent="jcnDfossht-irfQoDZaH-10">
          <mxGeometry x="-0.1" y="1" relative="1" as="geometry">
            <mxPoint as="offset" />
          </mxGeometry>
        </mxCell>
        <mxCell id="jcnDfossht-irfQoDZaH-12" value="Http" style="endArrow=classic;startArrow=classic;html=1;rounded=0;exitX=1;exitY=0.5;exitDx=0;exitDy=0;entryX=1;entryY=0.5;entryDx=0;entryDy=0;" edge="1" parent="1" source="jcnDfossht-irfQoDZaH-4" target="jcnDfossht-irfQoDZaH-3">
          <mxGeometry width="50" height="50" relative="1" as="geometry">
            <mxPoint x="510" y="320" as="sourcePoint" />
            <mxPoint x="560" y="270" as="targetPoint" />
            <Array as="points">
              <mxPoint x="760" y="400" />
              <mxPoint x="760" y="280" />
              <mxPoint x="760" y="160" />
            </Array>
          </mxGeometry>
        </mxCell>
        <mxCell id="jcnDfossht-irfQoDZaH-13" value="" style="endArrow=classic;startArrow=classic;html=1;rounded=0;exitX=0;exitY=0.5;exitDx=0;exitDy=0;entryX=0;entryY=0.5;entryDx=0;entryDy=0;" edge="1" parent="1" source="jcnDfossht-irfQoDZaH-4" target="jcnDfossht-irfQoDZaH-3">
          <mxGeometry width="50" height="50" relative="1" as="geometry">
            <mxPoint x="510" y="320" as="sourcePoint" />
            <mxPoint x="560" y="270" as="targetPoint" />
            <Array as="points">
              <mxPoint x="320" y="400" />
              <mxPoint x="320" y="280" />
              <mxPoint x="320" y="160" />
            </Array>
          </mxGeometry>
        </mxCell>
        <mxCell id="jcnDfossht-irfQoDZaH-24" value="/cours" style="edgeLabel;html=1;align=center;verticalAlign=middle;resizable=0;points=[];" vertex="1" connectable="0" parent="jcnDfossht-irfQoDZaH-13">
          <mxGeometry x="0.2075" y="2" relative="1" as="geometry">
            <mxPoint as="offset" />
          </mxGeometry>
        </mxCell>
        <mxCell id="jcnDfossht-irfQoDZaH-26" value="/progress" style="edgeLabel;html=1;align=center;verticalAlign=middle;resizable=0;points=[];" vertex="1" connectable="0" parent="jcnDfossht-irfQoDZaH-13">
          <mxGeometry x="-0.2109" relative="1" as="geometry">
            <mxPoint as="offset" />
          </mxGeometry>
        </mxCell>
        <mxCell id="jcnDfossht-irfQoDZaH-14" value="" style="endArrow=none;html=1;rounded=0;exitX=0.875;exitY=0.5;exitDx=0;exitDy=0;exitPerimeter=0;" edge="1" parent="1" source="jcnDfossht-irfQoDZaH-1">
          <mxGeometry width="50" height="50" relative="1" as="geometry">
            <mxPoint x="390" y="320" as="sourcePoint" />
            <mxPoint x="320" y="280" as="targetPoint" />
          </mxGeometry>
        </mxCell>
        <mxCell id="jcnDfossht-irfQoDZaH-18" value="" style="endArrow=classic;html=1;rounded=0;entryX=0;entryY=0.5;entryDx=0;entryDy=0;" edge="1" parent="1" target="jcnDfossht-irfQoDZaH-2">
          <mxGeometry width="50" height="50" relative="1" as="geometry">
            <mxPoint x="320" y="280" as="sourcePoint" />
            <mxPoint x="440" y="270" as="targetPoint" />
          </mxGeometry>
        </mxCell>
        <mxCell id="jcnDfossht-irfQoDZaH-25" value="/user" style="edgeLabel;html=1;align=center;verticalAlign=middle;resizable=0;points=[];" vertex="1" connectable="0" parent="jcnDfossht-irfQoDZaH-18">
          <mxGeometry x="-0.0253" relative="1" as="geometry">
            <mxPoint as="offset" />
          </mxGeometry>
        </mxCell>
        <mxCell id="jcnDfossht-irfQoDZaH-21" value="Database" style="ellipse;whiteSpace=wrap;html=1;fillColor=#d0cee2;strokeColor=#56517e;" vertex="1" parent="1">
          <mxGeometry x="540" y="100" width="75" height="50" as="geometry" />
        </mxCell>
        <mxCell id="jcnDfossht-irfQoDZaH-22" value="Database" style="ellipse;whiteSpace=wrap;html=1;fillColor=#d0cee2;strokeColor=#56517e;" vertex="1" parent="1">
          <mxGeometry x="540" y="220" width="75" height="50" as="geometry" />
        </mxCell>
        <mxCell id="jcnDfossht-irfQoDZaH-23" value="Database" style="ellipse;whiteSpace=wrap;html=1;fillColor=#d0cee2;strokeColor=#56517e;" vertex="1" parent="1">
          <mxGeometry x="540" y="340" width="75" height="50" as="geometry" />
        </mxCell>
      </root>
    </mxGraphModel>
  </diagram>
</mxfile>
